<svg id="Layer_1" data-name="Layer 1" xmlns="http://www.w3.org/2000/svg" viewBox="0 0 458 88"><defs><style>.cls-1{fill:#fa0f0c;}.cls-2{fill:#fff;}</style></defs><title>BringBo3Bback</title><rect class="cls-1" width="458" height="88"/><path class="cls-2" d="M29.16,13.56c3.79,0,7.92.39,11,3.85C42.5,20.08,43,23.21,43,26.35A13.71,13.71,0,0,1,41.14,34a8.92,8.92,0,0,1-4.4,4,12.53,12.53,0,0,1,5.35,3.84,12,12,0,0,1,2.44,7.77c0,5.57-1.9,9.18-3.66,11.3-2.77,3.38-6.63,5-13.53,5H12.45L18,13.56Zm-7,44h3.79c3.18,0,6.15-.24,7.91-2.2a8,8,0,0,0,1.76-5.34,7.16,7.16,0,0,0-1.49-4.63c-1.69-1.88-4.94-2.27-7.17-2.27H23.68ZM24.49,35.3h1.9C29,35.3,31.26,35,33,33a8.11,8.11,0,0,0,1.7-5,6,6,0,0,0-2-4.79,6.94,6.94,0,0,0-4.6-1.33H25.92Z"/><path class="cls-2" d="M53.46,31.93h8.26l-.54,4.86a12.13,12.13,0,0,1,3.65-4.47A8.1,8.1,0,0,1,70,30.83a9,9,0,0,1,3.86.78L71.4,40.17a6.17,6.17,0,0,0-3.19-.87,6.65,6.65,0,0,0-5.14,2.36c-1.83,2.12-3,6.35-3.38,9.81L58.13,65.91H49.88Z"/><path class="cls-2" d="M86.08,31.93l-3.58,34H74.24l3.59-34Zm-6-18.13a4.86,4.86,0,0,1,3.92-2,4,4,0,0,1,3.11,1.41,5.63,5.63,0,0,1,1.29,3.69,6.81,6.81,0,0,1-1.62,4.39,5.17,5.17,0,0,1-3.93,2,4.16,4.16,0,0,1-3.11-1.41,5.19,5.19,0,0,1-1.29-3.61A6.85,6.85,0,0,1,80.13,13.8Z"/><path class="cls-2" d="M93.93,31.93h8.26l-.47,4.39a11.06,11.06,0,0,1,3.58-3.92A9.72,9.72,0,0,1,111,30.83c3.92,0,6.36,1.41,7.85,3.14a11.4,11.4,0,0,1,2.3,7.45,50.4,50.4,0,0,1-.54,5.81l-2,18.68h-8.25l1.69-15.78c.07-.7.41-4.16.41-5.41a6.07,6.07,0,0,0-1.36-4.32A4.56,4.56,0,0,0,107.54,39a5.85,5.85,0,0,0-4.61,2c-1.55,1.88-2.23,5.1-2.5,7.53L98.6,65.91H90.35Z"/><path class="cls-2" d="M152.27,31.93h8.26l-3.45,32.41c-.41,4-1,10.51-4.47,14.67C150.44,81.6,146.45,84,140,84c-3.52,0-7.85-.71-11-4.56a17.81,17.81,0,0,1-3.59-9.49h8.66a7.67,7.67,0,0,0,1.7,4.16,5.68,5.68,0,0,0,4.46,1.72A7.48,7.48,0,0,0,146,73.52c1.82-2,2.37-5.1,2.64-7.38l.54-4.79a14.09,14.09,0,0,1-3.66,4A9.33,9.33,0,0,1,140,67a11.92,11.92,0,0,1-9.61-4.16c-2.16-2.51-3.85-6.51-3.85-12.16,0-6.43,2.16-11.77,5.27-15.14a13.67,13.67,0,0,1,10.43-4.71,10.62,10.62,0,0,1,6.15,1.65,10.45,10.45,0,0,1,3.39,3.84Zm-14.35,9.81a12,12,0,0,0-2.84,8.16,9.35,9.35,0,0,0,2.17,6.27,6.54,6.54,0,0,0,5.14,2.36A8.22,8.22,0,0,0,148.68,56a12.89,12.89,0,0,0,2.85-8.24,9,9,0,0,0-2.24-6.28,7.52,7.52,0,0,0-5.48-2.2A7.77,7.77,0,0,0,137.92,41.74Z"/><path class="cls-2" d="M198.5,13.56c3.79,0,7.91.39,11,3.85,2.37,2.67,2.91,5.8,2.91,8.94a13.63,13.63,0,0,1-1.9,7.62,8.84,8.84,0,0,1-4.4,4,12.53,12.53,0,0,1,5.35,3.84,12,12,0,0,1,2.44,7.77c0,5.57-1.9,9.18-3.66,11.3-2.77,3.38-6.63,5-13.53,5H181.78l5.55-52.35Zm-7,44h3.79c3.18,0,6.16-.24,7.91-2.2a8,8,0,0,0,1.76-5.34,7.21,7.21,0,0,0-1.48-4.63c-1.7-1.88-4.94-2.27-7.18-2.27H193Zm2.37-22.29h1.89c2.57,0,4.87-.31,6.57-2.35A8.17,8.17,0,0,0,204,28a6,6,0,0,0-2-4.79,6.93,6.93,0,0,0-4.6-1.33h-2.16Z"/><path class="cls-2" d="M249.59,35.69A17.27,17.27,0,0,1,253.38,47a21.24,21.24,0,0,1-5.21,14.29c-3.86,4.23-8.25,5.72-13.46,5.72-4.2,0-8.13-1-11.31-4.7-2.16-2.44-3.85-6.2-3.85-11.54a22,22,0,0,1,5.07-14.2A17.23,17.23,0,0,1,238,30.83C243.77,30.83,247.36,33.1,249.59,35.69ZM242,55.55a12.33,12.33,0,0,0,2.77-7.62,9.94,9.94,0,0,0-2.16-6.27,7.4,7.4,0,0,0-5.35-2.36A8.69,8.69,0,0,0,231,42.05a12.26,12.26,0,0,0-2.91,8.08,9.8,9.8,0,0,0,2,6,7.42,7.42,0,0,0,5.42,2.43A8.54,8.54,0,0,0,242,55.55Z"/><path class="cls-2" d="M261.57,27.22a21.15,21.15,0,0,1,4.13-10,13.38,13.38,0,0,1,10.76-4.78c5.69,0,9.07,2.35,10.76,4.39a14.58,14.58,0,0,1,3.18,9.5,14.29,14.29,0,0,1-2,7.53A10.69,10.69,0,0,1,283.91,38a9.24,9.24,0,0,1,4,3.77,12.3,12.3,0,0,1,1.69,6.74,21,21,0,0,1-4.06,13c-3.79,4.87-8.53,5.57-12.79,5.57-3.59,0-7.85-.62-11.23-4.39a19.42,19.42,0,0,1-4.4-11.85h8.8a9.25,9.25,0,0,0,2.23,5.65,6.66,6.66,0,0,0,4.8,1.8,6.91,6.91,0,0,0,5.76-2.51A10.82,10.82,0,0,0,280.79,49a7,7,0,0,0-2.16-5.58,7.18,7.18,0,0,0-4.94-1.57h-.75l.75-7.37h1.22a6.49,6.49,0,0,0,5.07-2,9.06,9.06,0,0,0,1.9-5.73,6.59,6.59,0,0,0-1.7-4.71,5.25,5.25,0,0,0-4.06-1.65,5.38,5.38,0,0,0-4.46,2,9.63,9.63,0,0,0-1.83,4.87Z"/><path class="cls-2" d="M330.06,13.56c3.79,0,7.92.39,11,3.85,2.37,2.67,2.91,5.8,2.91,8.94A13.71,13.71,0,0,1,342,34a8.88,8.88,0,0,1-4.4,4A12.53,12.53,0,0,1,343,41.81a12,12,0,0,1,2.44,7.77c0,5.57-1.9,9.18-3.66,11.3-2.77,3.38-6.63,5-13.53,5H313.35l5.55-52.35Zm-7,44h3.79c3.18,0,6.15-.24,7.91-2.2a8,8,0,0,0,1.76-5.34A7.16,7.16,0,0,0,335,45.42c-1.69-1.88-4.94-2.27-7.17-2.27h-3.25Zm2.36-22.29h1.9c2.57,0,4.87-.31,6.56-2.35a8.11,8.11,0,0,0,1.7-5,6,6,0,0,0-2-4.79,6.94,6.94,0,0,0-4.6-1.33h-2.16Z"/><path class="cls-2" d="M377,31.93h8.26l-3.59,34h-8.25l.47-4.4a14.25,14.25,0,0,1-3.72,3.85A9.33,9.33,0,0,1,364.65,67,12,12,0,0,1,355,62.69c-2.84-3.3-3.93-7.46-3.93-12,0-6.12,1.76-11.14,4.54-14.52a14.72,14.72,0,0,1,11.57-5.33A10.45,10.45,0,0,1,373,32.48a9.34,9.34,0,0,1,3.45,3.84Zm-14.34,9.81a11.74,11.74,0,0,0-2.91,7.84,10.06,10.06,0,0,0,2.23,6.75,7,7,0,0,0,5.42,2.2,7.76,7.76,0,0,0,5.81-2.43,12.07,12.07,0,0,0,2.91-8.17,9.54,9.54,0,0,0-2-6,7,7,0,0,0-5.68-2.59A7.74,7.74,0,0,0,362.62,41.74Z"/><path class="cls-2" d="M414.19,42.28a9.08,9.08,0,0,0-7-3A7.62,7.62,0,0,0,401.13,42a12.18,12.18,0,0,0-2.71,7.77,9.66,9.66,0,0,0,2,6.2A7.21,7.21,0,0,0,406,58.53a9.5,9.5,0,0,0,6.77-3l-.95,9.34a14.66,14.66,0,0,1-18.41-2.67c-2.09-2.51-3.65-6.2-3.65-11.46,0-6,1.83-10.83,4.74-14.28a15.3,15.3,0,0,1,12.58-5.65,15.73,15.73,0,0,1,8.12,2Z"/><path class="cls-2" d="M432.26,8.7l-3.72,35,12.18-11.77H450.8L435.17,47l12.65,18.92h-9.88l-8.59-14-1.89,1.72-1.29,12.25h-8.26L424,8.7Z"/></svg>